<?xml version="1.0" encoding="utf-8"?>
<!-- Generator: Adobe Illustrator 26.0.3, SVG Export Plug-In . SVG Version: 6.00 Build 0)  -->
<svg version="1.1" id="Слой_1" xmlns="http://www.w3.org/2000/svg" xmlns:xlink="http://www.w3.org/1999/xlink" x="0px" y="0px"
	 viewBox="0 0 585.19 393.7" style="enable-background:new 0 0 585.19 393.7;" xml:space="preserve">
<style type="text/css">
	.st0{fill:#E9408F;}
</style>
<g>
	<path d="M49.94,143.88c-0.16,1.33-0.39,2.6-0.7,3.79c-0.31,1.2-0.33,2.46-0.08,3.8c0.03,0.16,0.08,0.35,0.17,0.58
		c0.08,0.23,0.14,0.42,0.17,0.58c0.12,0.63,0.02,1.44-0.28,2.43c-0.3,0.99-0.32,2.24-0.04,3.73c-0.04,0.25-0.18,0.64-0.45,1.18
		c-0.27,0.54-0.54,1.16-0.81,1.86c-0.28,0.7-0.51,1.44-0.69,2.2c-0.18,0.77-0.21,1.5-0.08,2.21c0.06,0.32,0.15,0.58,0.27,0.8
		c0.12,0.22,0.21,0.49,0.27,0.8c0.06,0.32,0.06,0.56,0.01,0.73c-0.38,1.46-0.66,3.24-0.83,5.34c-0.18,2.11-0.44,4.17-0.8,6.19
		c-0.36,2.02-0.88,3.79-1.57,5.3c-0.69,1.51-1.71,2.39-3.05,2.64c-0.63,0.12-1.25,0.07-1.86-0.14c-0.61-0.21-1.19-0.47-1.73-0.78
		c-0.55-0.3-0.99-0.61-1.33-0.91c-0.34-0.3-0.53-0.53-0.56-0.69c-0.09-0.47,0.11-1.16,0.59-2.06c0.79-1.86,1.24-4.02,1.36-6.48
		c0.11-2.46,0.52-4.86,1.22-7.19c0.07-0.5,0.07-0.95-0.01-1.34c-0.16-2.57,0.04-5.34,0.59-8.29c0.55-2.95,1.4-5.71,2.54-8.29
		c0.1-0.34,0.15-0.92,0.16-1.74c0.01-2.12,0.41-4.11,1.21-5.96c0.79-1.86,1.64-3.64,2.54-5.36c0.35-0.72,0.83-1.84,1.44-3.38
		c0.61-1.54,1.37-3.1,2.3-4.7c0.92-1.6,1.99-3.06,3.21-4.38c1.22-1.33,2.65-2.14,4.3-2.45c1.34-0.25,2.68-0.15,4.02,0.29
		c1.34,0.44,2.62,0.88,3.84,1.3l-0.12,0.02c0.01,0.08,0.18,0.31,0.5,0.7c0.32,0.39,0.64,0.82,0.97,1.28
		c0.33,0.47,0.66,0.9,0.97,1.28c0.32,0.39,0.48,0.62,0.5,0.7c0.13,0.71,0.09,1.47-0.12,2.28c-0.21,0.81-0.24,1.65-0.08,2.52
		c0.03,0.16,0.07,0.29,0.14,0.4c0.06,0.11,0.11,0.25,0.14,0.4c-0.39,0.97-0.43,1.93-0.13,2.89c0.3,0.96,0.38,1.9,0.22,2.83
		c-0.07,0.91-0.04,1.76,0.11,2.54c0.09,0.47,0.19,0.94,0.32,1.4c0.13,0.46,0.27,0.93,0.44,1.38c0.07,0.39,0.12,0.77,0.15,1.13
		c0.03,0.36,0.04,0.75,0.03,1.15c0.21,1.1,0.02,2.17-0.56,3.22c-0.58,1.04-0.77,2.08-0.58,3.1c0.04,0.24,0.11,0.39,0.21,0.45
		c0.55,0.79,0.98,1.67,1.28,2.63c0.3,0.96,0.53,1.84,0.67,2.62c0.35,1.89,0.25,3.54-0.3,4.94c1.05,2.17,1.83,4.01,2.32,5.55
		c0.49,1.54,0.91,3.25,1.26,5.13c0.21,1.1,0.54,2.14,1.01,3.11c0.47,0.97,0.78,1.89,0.94,2.75c0.12,0.63,0.07,1.25-0.14,1.86
		c-0.1,0.75-0.2,1.32-0.29,1.7c-0.09,0.38-0.2,0.69-0.32,0.91c-0.12,0.22-0.35,0.39-0.7,0.5c-0.35,0.11-0.83,0.22-1.46,0.33
		c-1.89,0.35-3.54-0.09-4.95-1.33c-1.41-1.24-2.6-2.83-3.57-4.76c-0.97-1.93-1.76-3.96-2.36-6.09c-0.6-2.13-1.03-3.9-1.3-5.31
		c-0.22-1.18-0.41-2.53-0.57-4.04c-0.16-1.51-0.41-3.18-0.75-4.99c-0.12-0.63-0.26-1.29-0.43-1.99c-0.17-0.7-0.32-1.36-0.43-1.99
		c-0.21-1.1-0.37-2.39-0.48-3.88c-0.12-1.48-0.25-3.07-0.4-4.75c-0.15-1.68-0.31-3.4-0.47-5.16c-0.17-1.76-0.4-3.47-0.71-5.12
		c-0.04-0.24-0.1-0.51-0.15-0.83c-0.06-0.31-0.25-0.44-0.56-0.38c-0.39,0.07-0.75,0.44-1.07,1.12c-0.32,0.67-0.84,1.07-1.55,1.2
		c-0.39,0.07-0.79,0.66-1.2,1.75c-0.41,1.09-1.03,2.21-1.88,3.34c-0.03-0.16-0.01-0.26,0.06-0.32c0.07-0.05,0.1-0.12,0.08-0.2
		l-0.4-0.17c0.11,0.14,0.17,0.23,0.17,0.27C49.77,143.65,49.83,143.74,49.94,143.88z"/>
	<path d="M147.45,124.81c0.12,0.63-0.17,1.19-0.85,1.68c-0.68,0.49-0.97,1.01-0.87,1.56c0.07,0.39,0.17,0.84,0.31,1.34
		c0.13,0.5,0.24,0.95,0.31,1.34c0.16,0.86,0.19,1.67,0.08,2.42c0.8,0.34,1.25,0.83,1.37,1.45c0.07,0.39,0.03,0.72-0.12,1
		c-0.15,0.27-0.21,0.53-0.16,0.76c0.04,0.24,0.14,0.44,0.3,0.62c0.15,0.17,0.25,0.34,0.28,0.5c0.07,0.39-0.08,0.87-0.47,1.43
		c-0.38,0.56-0.73,1.11-1.03,1.65c-0.19-0.13-0.41-0.25-0.68-0.36c-0.27-0.11-0.44-0.16-0.52-0.15c-0.08,0.02-0.16,0.11-0.25,0.29
		c-0.09,0.18-0.13,0.31-0.11,0.39c0.19,0.61,0.36,1.19,0.51,1.73c0.14,0.54,0.27,1.13,0.39,1.75c0.02,0.57,0.02,1.09-0.01,1.59
		c-0.03,0.49-0.03,1.02-0.01,1.59c-0.06,0.99,0.06,2.18,0.36,3.59c0.3,1.4,0.22,2.39-0.24,2.97c-0.46,0.57-0.72,1.35-0.79,2.34
		c-0.06,0.99-0.09,1.93-0.08,2.82c0,0.89-0.03,1.69-0.1,2.39c-0.07,0.71-0.38,1.11-0.93,1.21c-0.16,0.03-0.3,0.04-0.42,0.02
		c-0.12-0.02-0.27-0.01-0.42,0.02c-0.19,1.17-0.4,2.45-0.63,3.83c-0.23,1.38-0.62,2.69-1.16,3.93c-0.54,1.24-1.29,2.33-2.26,3.28
		c-0.96,0.95-2.27,1.58-3.92,1.89c-0.31,0.06-0.62,0.05-0.92-0.01c-0.3-0.07-0.56-0.08-0.8-0.03c-0.39,0.07-0.8,0.27-1.23,0.6
		c-0.43,0.32-0.84,0.52-1.23,0.6c-1.57,0.29-2.67,0.17-3.3-0.36c-0.63-0.53-1.41-0.87-2.33-1.03c-0.92-0.15-1.93-0.51-3.01-1.08
		c-1.08-0.57-2.15-1.28-3.21-2.14c-1.06-0.86-2.08-1.78-3.08-2.77c-1-0.99-1.88-1.98-2.63-2.98c-0.22-0.28-0.57-0.85-1.05-1.69
		c-0.48-0.84-1.02-1.77-1.62-2.8c-0.6-1.02-1.14-2.06-1.62-3.1c-0.48-1.04-0.78-1.92-0.92-2.62c-0.03-0.16-0.05-0.38-0.06-0.66
		c-0.01-0.28-0.04-0.54-0.08-0.77c-0.06-0.31-0.18-0.53-0.37-0.66c-1.16-1-2.02-1.75-2.56-2.26c-0.54-0.51-1.33-0.66-2.35-0.47
		c-0.39,0.07-0.97,0.35-1.74,0.81c-0.77,0.47-1.54,1.02-2.32,1.65c-0.78,0.63-1.43,1.3-1.94,2.01c-0.52,0.71-0.73,1.3-0.65,1.77
		c0.14,0.3,0.33,0.45,0.57,0.44c0.24,0,0.49-0.01,0.73-0.01c0.24,0,0.48,0.05,0.7,0.17c0.22,0.12,0.4,0.5,0.52,1.12
		c0.15,0.79,0.07,1.59-0.22,2.42c-0.29,0.83-0.38,1.56-0.26,2.19c0.1,0.55,0.45,1.1,1.04,1.64c0.59,0.54,0.96,1.24,1.13,2.11
		c0.03,0.16,0.04,0.32,0.03,0.48c-0.01,0.17,0,0.33,0.03,0.48c0.1,0.55,0.22,1.06,0.35,1.52c0.13,0.46,0.23,0.93,0.32,1.4
		c0.18,0.94,0.22,1.83,0.13,2.66c-0.08,0.42-0.05,1.13,0.09,2.12c0.14,0.99,0.21,2.02,0.21,3.07c-0.01,1.06-0.19,2.05-0.54,2.97
		c-0.36,0.92-1.05,1.48-2.07,1.67c-2.05,0.38-3.62,0.53-4.74,0.45c-1.11-0.08-1.99-0.39-2.62-0.93c-0.63-0.54-1.12-1.31-1.47-2.32
		c-0.35-1-0.82-2.23-1.42-3.68c-0.03-0.16-0.03-0.36,0.01-0.62c0.03-0.25,0.07-0.5,0.1-0.76l-0.12,0.02l-0.02-0.12
		c-0.16,0.03-0.23,0.08-0.21,0.16c-0.58-0.47-0.93-1.06-1.06-1.78c-0.1-0.55-0.03-1.13,0.22-1.75c0.25-0.62,0.32-1.24,0.2-1.86
		c-0.01-0.08-0.13-0.38-0.35-0.91c-0.22-0.53-0.45-1.11-0.69-1.76s-0.46-1.25-0.65-1.83c-0.19-0.57-0.29-0.9-0.3-0.98
		c-0.06-0.31-0.06-0.52,0.01-0.61c0.2-0.69,0.27-1.39,0.22-2.11c-0.05-0.72-0.15-1.45-0.29-2.2c-0.14-0.75-0.24-1.5-0.3-2.26
		c-0.06-0.76,0-1.52,0.18-2.29c0.05-0.17,0.04-0.45-0.04-0.85c-0.09-0.47-0.33-0.91-0.74-1.32c-0.4-0.41-0.66-0.89-0.76-1.44
		c-0.04-0.24-0.07-0.46-0.06-0.66c0-0.2,0.02-0.43,0.06-0.68c-0.11-0.14-0.2-0.41-0.27-0.8c-0.07-0.39-0.09-0.83-0.06-1.33
		s0.01-0.94-0.06-1.33c-0.07-0.39-0.27-0.8-0.6-1.23c-0.08-0.88-0.19-1.69-0.33-2.43c-0.14-0.75-0.25-1.56-0.33-2.44
		c-0.03-0.16-0.08-0.29-0.14-0.4c-0.06-0.11-0.11-0.24-0.14-0.4c-0.04-0.23-0.03-0.4,0.03-0.49c0.48-0.9,0.62-2.11,0.42-3.61
		c-0.2-1.5-0.4-2.81-0.61-3.91c-0.1-0.55-0.28-1.06-0.53-1.54c-0.25-0.48-0.43-1-0.53-1.54c-0.04-0.24-0.03-0.6,0.04-1.1
		c0.07-0.5,0.07-1.27,0-2.31c-0.07-1.04-0.13-2.11-0.17-3.2c-0.04-1.09,0.02-2.05,0.19-2.9c0.17-0.84,0.53-1.32,1.08-1.42
		c0.47-0.09,1.17-0.05,2.09,0.1c0.92,0.15,1.78,0.16,2.57,0.01c2.28-0.43,3.85-0.07,4.72,1.07c0.86,1.14,1.46,2.62,1.8,4.42
		c0.43,2.28,0.68,4.72,0.75,7.31c0.08,2.59,0.34,5.1,0.8,7.54c0.18,0.94,0.37,1.87,0.58,2.76c0.21,0.9,0.4,1.82,0.58,2.76
		c0.09,0.47,0.16,0.95,0.2,1.43c0.05,0.48,0.08,1,0.11,1.57c0.17,0.05,0.39,0.11,0.64,0.18c0.26,0.07,0.46,0.1,0.62,0.07
		c3.93-0.73,6.62-1.56,8.08-2.49c1.45-0.92,2.01-2.29,1.68-4.1c-0.31-1.65-0.28-3.22,0.1-4.72c0.37-1.49,0.78-3.01,1.22-4.56
		c0.39-1.37,0.7-2.98,0.93-4.81c0.23-1.83,0.51-3.59,0.85-5.29c0.33-1.69,0.75-3.15,1.26-4.38c0.5-1.23,1.23-1.94,2.17-2.11
		c0.55-0.1,1.03-0.13,1.45-0.09c0.42,0.04,0.82,0.03,1.21-0.04c0.63-0.12,1.09-0.45,1.4-0.99c0.3-0.54,0.73-0.87,1.28-0.97
		c0.24-0.04,0.49,0.01,0.76,0.16c0.27,0.15,0.53,0.21,0.76,0.16c0.86-0.16,1.72-0.46,2.58-0.91c0.85-0.44,1.79-0.76,2.81-0.95
		c0.31-0.06,0.6-0.07,0.85-0.04c0.25,0.04,0.53,0.02,0.85-0.04c0.24-0.04,0.46-0.15,0.67-0.31c0.21-0.16,0.44-0.27,0.67-0.31
		c0.63-0.12,1.19,0.04,1.68,0.48c0.49,0.44,1.16,0.58,2.03,0.42c2.12,0.01,3.87,0.21,5.24,0.61c1.38,0.39,2.7,1.06,3.97,2
		c1.27,0.94,2.08,2.31,2.42,4.12c0.25,1.33,0.67,2.41,1.27,3.24C146.49,122.81,147.01,123.75,147.45,124.81z M88.87,176.54
		c-0.08,0.01-0.12-0.02-0.14-0.1l0.12-0.02L88.87,176.54z M114.32,161.17c0.22-0.12,0.31-0.3,0.27-0.54
		c-0.07-0.39-0.27-0.7-0.6-0.93c-0.33-0.22-0.57-0.32-0.73-0.29c-0.19,0.28-0.24,0.7-0.13,1.25c0.1,0.55,0.39,0.78,0.86,0.69
		c0.08-0.01,0.13-0.04,0.17-0.09C114.18,161.21,114.24,161.18,114.32,161.17z M115.43,151.44c0.44,0.16,0.58-0.15,0.44-0.94
		c-0.09-0.06-0.2-0.19-0.31-0.37c-0.12-0.18-0.25-0.26-0.41-0.23c-0.47,0.09-0.66,0.41-0.55,0.96
		C114.68,151.33,114.96,151.53,115.43,151.44z M116.88,148.73c-0.01-0.08,0.02-0.13,0.1-0.14l0.1-0.14
		c-0.11-0.14-0.17-0.27-0.19-0.39c-0.02-0.12-0.09-0.25-0.2-0.39l-0.19,0.28C116.53,148.18,116.66,148.44,116.88,148.73z
		 M118.67,146.56c-0.06-0.31-0.11-0.57-0.14-0.77c-0.04-0.2-0.2-0.39-0.48-0.58c-0.19,0.28-0.27,0.54-0.22,0.77
		c0.04,0.24,0.12,0.42,0.23,0.57c0.11,0.14,0.25,0.28,0.44,0.41C118.63,146.77,118.69,146.64,118.67,146.56z M141.04,142.81
		c0.13-0.19,0.17-0.4,0.13-0.63c-0.09-0.47-0.25-0.99-0.47-1.56c-0.23-0.57-0.47-1.13-0.74-1.69c-0.27-0.56-0.51-1.1-0.73-1.63
		c-0.22-0.53-0.35-0.91-0.4-1.15c-0.07-0.39-0.02-0.87,0.16-1.43c0.18-0.56,0.21-1.16,0.09-1.78c-0.21-1.1-0.59-2.2-1.17-3.31
		c-0.57-1.11-0.94-2.1-1.1-2.96c-0.04-0.23-0.07-0.47-0.07-0.71c-0.01-0.24-0.04-0.52-0.09-0.84c-1.22-1.72-2.26-3.05-3.12-3.98
		c-0.87-0.93-1.82-1.77-2.85-2.51c-1.03-0.74-1.98-1.03-2.85-0.87c-0.71,0.13-1.39,0.42-2.04,0.87c-0.65,0.45-1.29,0.73-1.92,0.85
		c-0.71,0.13-1.46,0.9-2.26,2.31c-0.79,1.41-1.53,3.17-2.19,5.28c-0.66,2.11-1.13,4.41-1.4,6.9c-0.27,2.49-0.2,4.83,0.21,7.02
		c0.47,2.51,0.96,5.12,1.46,7.83c0.5,2.71,1.32,5.13,2.46,7.27c0.27,0.6,0.71,1.49,1.29,2.68c0.59,1.19,1.32,2.39,2.2,3.61
		c0.88,1.22,1.86,2.23,2.95,3.04c1.09,0.81,2.3,1.09,3.64,0.84c0.87-0.16,1.68-0.82,2.44-1.98c0.76-1.16,1.46-2.52,2.1-4.11
		s1.16-3.18,1.55-4.79c0.39-1.61,0.62-2.92,0.68-3.9c0.13-1.48,0.34-2.94,0.65-4.38C139.95,145.65,140.41,144.23,141.04,142.81z
		 M118.38,152.84c0.55-0.1,0.85-0.26,0.89-0.47c0.04-0.21,0.14-0.53,0.31-0.97c-0.17-0.05-0.34-0.1-0.52-0.15
		c-0.17-0.05-0.3-0.07-0.38-0.05c-0.13,0.19-0.28,0.38-0.44,0.57c-0.17,0.2-0.24,0.37-0.21,0.53
		C118.08,152.53,118.19,152.72,118.38,152.84z M120.27,155.78c-0.01-0.08,0-0.12,0.04-0.13c0.04-0.01,0.05-0.05,0.04-0.13
		c-0.03-0.16-0.09-0.25-0.17-0.27c-0.09-0.02-0.14-0.11-0.17-0.27c-0.13,0.19-0.18,0.32-0.17,0.4c0.01,0.08-0.01,0.17-0.07,0.26
		c0.06,0.32,0.17,0.46,0.32,0.43c0.08-0.01,0.11-0.04,0.11-0.08c-0.01-0.04,0.03-0.07,0.11-0.08L120.27,155.78z M121.59,170.06
		l0.21-0.16c-0.09-0.06-0.14-0.11-0.15-0.15c-0.01-0.04-0.06-0.09-0.15-0.16l-0.12,0.02l-0.19,0.28
		C121.22,170.05,121.36,170.11,121.59,170.06z M142.17,127.89l0.19-0.28c-0.01-0.08-0.05-0.13-0.09-0.17
		c-0.05-0.03-0.08-0.12-0.11-0.28c-0.06,0.09-0.08,0.22-0.05,0.38L142.17,127.89z M146.45,133.2c-0.06,0.09-0.18,0.22-0.36,0.37
		c-0.18,0.15-0.25,0.31-0.22,0.47c0.03,0.16,0.2,0.21,0.52,0.15c0.16-0.03,0.22-0.12,0.19-0.28c-0.03-0.16-0.07-0.25-0.11-0.28
		c-0.05-0.03-0.08-0.13-0.11-0.28L146.45,133.2z"/>
	<path d="M198.36,23.42c1.65,0.1,3.26,0.67,4.84,1.72c1.58,1.05,2.67,2.33,3.28,3.84c0.12,0.63-0.05,1.15-0.5,1.56
		c-0.45,0.41-0.92,0.66-1.39,0.75c-0.63,0.12-1.34,0.45-2.13,1.01c-0.79,0.56-1.65,1.18-2.58,1.89c-0.93,0.7-1.86,1.38-2.79,2.05
		c-0.93,0.66-1.85,1.2-2.75,1.61c-1.06,0.44-2.06,0.98-3,1.6c-0.94,0.62-1.89,1.23-2.84,1.81c-0.95,0.59-1.91,1.13-2.87,1.63
		c-0.96,0.51-2.04,0.87-3.21,1.09c-2.05,0.38-4.2,0.6-6.47,0.66c-2.27,0.06-4.5-0.12-6.69-0.52c-0.92-0.15-2.05-0.29-3.37-0.41
		c-1.33-0.12-2.46-0.09-3.4,0.09c-0.47,0.09-0.86,0.4-1.17,0.95c-0.31,0.54-0.57,1.2-0.79,1.98c-0.22,0.77-0.36,1.55-0.42,2.34
		c-0.06,0.79-0.03,1.45,0.07,2c0.25,1.34,0.71,2.63,1.4,3.89c0.68,1.26,1.15,2.55,1.4,3.89c0.03,0.16,0.21,0.57,0.53,1.24
		c0.33,0.67,0.71,1.42,1.14,2.23c0.43,0.82,0.88,1.61,1.35,2.37s0.84,1.29,1.14,1.56c1.41,1.53,2.61,3.22,3.6,5.07
		c0.99,1.85,1.85,3.68,2.6,5.5c0.24,0.44,0.43,0.9,0.56,1.36s0.3,0.88,0.54,1.24c1.09,1.51,2.04,3.2,2.88,5.08
		c0.83,1.88,1.54,3.72,2.12,5.52c0.58,1.81,1.02,3.43,1.33,4.88c0.31,1.45,0.53,2.49,0.64,3.12c0.38,2.04,1.13,4,2.25,5.87
		c1.12,1.87,1.87,3.82,2.25,5.87c0.15,0.79,0.17,1.43,0.06,1.94c-0.11,0.51-0.25,0.94-0.43,1.3c-0.18,0.36-0.33,0.71-0.47,1.06
		c-0.14,0.35-0.17,0.72-0.1,1.12c0.15,0.79,0.55,1.32,1.22,1.6c0.66,0.29,1.05,0.7,1.15,1.25c0.12,0.63-0.06,1.11-0.52,1.44
		c-0.47,0.33-0.72,0.83-0.76,1.48c0.16,0.87,0.46,1.68,0.89,2.46c0.43,0.77,0.72,1.59,0.89,2.46c0.09,0.47,0.03,0.95-0.16,1.43
		c-0.2,0.48-0.42,1.01-0.68,1.59c-0.26,0.58-0.48,1.15-0.66,1.71c-0.18,0.56-0.22,1.12-0.12,1.67c0.07,0.39,0.19,0.8,0.35,1.22
		c0.16,0.42,0.28,0.82,0.35,1.22c0.19,1.02,0.24,1.89,0.14,2.6c-0.1,0.71-0.21,1.36-0.33,1.95c-0.12,0.59-0.25,1.15-0.38,1.66
		c-0.14,0.51-0.15,1.05-0.05,1.6c0.31,1.65,0.22,3.21-0.26,4.69c-0.48,1.47-0.59,2.88-0.34,4.22l0.46,2.48
		c0.21,1.1,0.1,2.2-0.33,3.3c-0.42,1.1-0.58,1.96-0.46,2.59c0.07,0.39,0.22,0.75,0.44,1.08c0.22,0.33,0.37,0.68,0.45,1.08
		c0.22,1.18,0.25,2.45,0.1,3.83c-0.15,1.37-0.53,2.64-1.12,3.81c-0.6,1.17-1.44,2.2-2.54,3.1c-1.1,0.89-2.51,1.51-4.24,1.83
		c-2.28,0.43-4.4,0.21-6.35-0.65c-1.95-0.86-3.68-2.06-5.19-3.61c-1.51-1.55-2.76-3.33-3.74-5.34c-0.99-2.01-1.65-3.96-2.01-5.85
		c-0.06-0.31-0.1-0.63-0.12-0.95c-0.02-0.32-0.06-0.64-0.12-0.96c-0.16-0.86-0.35-1.78-0.58-2.76c-0.22-0.98-0.42-1.9-0.58-2.76
		c-0.38-2.04-0.68-4.18-0.89-6.42c-0.21-2.24-0.26-4.14-0.15-5.7c0.04-1.55,0.21-3.55,0.53-6.01s0.76-4.88,1.33-7.26
		c0.57-2.38,1.28-4.47,2.13-6.25c0.85-1.78,1.82-2.78,2.92-2.98c1.1-0.21,2.17-0.34,3.22-0.42c1.04-0.07,2.13-0.13,3.26-0.18
		c0.88-1.38,1.21-2.91,0.98-4.57c-0.23-1.66-0.38-3.34-0.45-5.04c-0.07-0.39-0.03-0.7,0.13-0.94c0.16-0.23,0.32-0.45,0.49-0.64
		c0.17-0.19,0.33-0.39,0.5-0.58c0.17-0.19,0.22-0.45,0.16-0.76c-0.13-0.71-0.38-1.51-0.76-2.42c-0.37-0.91-0.62-1.67-0.74-2.3
		c-0.1-0.55-0.08-1.1,0.06-1.66c0.14-0.55,0.16-1.11,0.06-1.66c-0.47-1.62-0.87-3.21-1.2-4.78c-0.33-1.56-1.04-3.06-2.12-4.48
		c-0.45-1.54-1.12-2.96-2.01-4.26c-0.89-1.3-1.64-2.7-2.25-4.21c-0.35-0.99-0.93-2.04-1.75-3.15s-1.68-2.25-2.59-3.42
		c-0.91-1.17-1.81-2.39-2.69-3.64c-0.89-1.26-1.62-2.56-2.2-3.92c-0.69-1.5-1.53-2.95-2.52-4.35c-0.99-1.4-1.64-2.89-1.93-4.46
		c-0.06-0.31-0.08-0.64-0.06-0.97c0.02-0.33,0-0.65-0.06-0.97c-0.13-0.71-0.42-1.34-0.85-1.91c-0.43-0.57-0.71-1.21-0.85-1.92
		c-0.29-1.57-0.24-3.04,0.16-4.42c0.4-1.38,1.06-2.58,1.98-3.6c0.92-1.03,2.04-1.88,3.35-2.58c1.31-0.69,2.68-1.17,4.1-1.44
		c1.73-0.32,3.66-0.46,5.78-0.41c2.12,0.05,3.97-0.07,5.55-0.36c5.35-1,10.26-2.71,14.73-5.13
		C189.61,29.02,194.02,26.34,198.36,23.42z M170.79,147.21c-0.01,0.41,0,0.79,0.03,1.15c0.03,0.36,0.07,0.7,0.13,1.01
		c0.09,0.47,0.28,0.95,0.57,1.42c0.29,0.47,0.6,0.68,0.92,0.62c0.16-0.03,0.31-0.12,0.44-0.27s0.19-0.3,0.16-0.46
		c0.13-1.98,0.37-3.98,0.74-6c0.37-2.02,0.71-4.06,1.03-6.11c0.32-2.05,0.53-4.04,0.62-5.97c0.09-1.93-0.02-3.76-0.34-5.49
		c-0.07-0.39-0.31-0.55-0.7-0.48c-0.32,0.06-0.51,0.14-0.57,0.23c-0.69,1.19-1.29,2.6-1.82,4.24c-0.52,1.64-0.95,3.33-1.29,5.06
		c-0.34,1.73-0.55,3.46-0.65,5.19c-0.09,1.73-0.02,3.22,0.21,4.48C170.35,146.16,170.52,146.61,170.79,147.21z M184.83,110.54
		c-0.04-0.24-0.17-0.5-0.39-0.78c-0.11,0.26-0.13,0.59-0.06,0.99c0.03,0.16,0.08,0.23,0.16,0.21
		C184.77,110.91,184.87,110.77,184.83,110.54z"/>
	<path d="M258.49,144.22c-0.2,2.42-0.77,4.27-1.71,5.55c-0.94,1.28-2.34,2.38-4.21,3.3c-1.16-0.52-2.42-1.08-3.79-1.67
		c-1.38-0.6-2.19-1.61-2.46-3.02c-0.19-1.02-0.59-1.64-1.2-1.85c-0.61-0.21-1-0.75-1.16-1.62c-0.12-0.63-0.22-1.28-0.3-1.96
		c-0.09-0.67-0.19-1.33-0.3-1.96c-0.35-0.99-0.74-2.1-1.17-3.32s-0.73-2.31-0.91-3.25c-0.09-0.47-0.14-0.97-0.16-1.5
		c-0.02-0.53-0.07-1.03-0.16-1.5c-0.2-0.61-0.4-1.19-0.63-1.71c-0.22-0.53-0.42-1.06-0.6-1.6c-0.09-0.47-0.08-0.98,0.02-1.53
		c0.1-0.55,0.12-1.02,0.04-1.41c-0.07-0.39-0.21-0.79-0.41-1.21c-0.2-0.41-0.34-0.81-0.41-1.21c-0.23-1.26-0.37-2.66-0.42-4.2
		c-0.04-1.54-0.2-3.01-0.46-4.43c-0.07-0.39-0.16-0.76-0.27-1.11c-0.11-0.35-0.38-0.6-0.81-0.76c-0.16,0.03-0.31,0.08-0.46,0.15
		c-0.15,0.07-0.31,0.12-0.46,0.15c0.03,0.16-0.18,0.69-0.62,1.58c-0.44,0.9-0.95,1.91-1.51,3.03c-0.57,1.12-1.09,2.24-1.57,3.34
		c-0.49,1.11-0.79,1.96-0.93,2.55c-0.08,0.42-0.19,0.97-0.3,1.64c-0.12,0.67-0.26,1.33-0.43,1.97c-0.17,0.64-0.36,1.43-0.6,2.37
		c-0.59,0.35-0.99,0.82-1.21,1.38c-0.22,0.57-0.4,1.15-0.53,1.75c-0.13,0.6-0.23,1.16-0.29,1.7c-0.06,0.54-0.19,0.95-0.38,1.23
		c-0.8,0.96-1.47,2.35-2.03,4.16c-0.56,1.81-1.23,3.65-2.02,5.5c-0.79,1.86-1.78,3.55-2.96,5.07c-1.18,1.52-2.79,2.47-4.84,2.86
		c-1.89,0.35-3.9,0.04-6.04-0.95c-2.14-0.98-3.58-2.83-4.33-5.54c-0.41-1.31-0.97-2.57-1.68-3.78c-0.71-1.21-1.19-2.44-1.42-3.7
		c-0.4-2.12-0.7-4.3-0.92-6.54c-0.22-2.24-0.31-4.38-0.28-6.42c-0.01-0.08-0.04-0.66-0.08-1.75c-0.04-1.09-0.15-2.45-0.33-4.09
		c-0.18-1.63-0.41-3.48-0.67-5.55c-0.26-2.07-0.59-4.16-0.99-6.29c-0.09-0.47-0.24-0.95-0.45-1.44c-0.21-0.49-0.36-0.97-0.45-1.44
		c-0.07-0.39,0.04-0.78,0.33-1.16c0.3-0.38,0.64-0.61,1.03-0.68c1.45-0.11,2.9,0.05,4.36,0.47c1.46,0.42,2.32,1.33,2.59,2.74
		c0.48,4.78,0.9,9.43,1.26,13.95c0.36,4.52,0.97,9.13,1.85,13.84c0.16,0.86,0.36,1.84,0.61,2.93c0.24,1.09,0.52,2.13,0.83,3.13
		c0.31,1,0.66,1.82,1.07,2.48c0.41,0.66,0.85,0.94,1.32,0.85c0.71-0.13,1.52-1.1,2.45-2.9c0.92-1.8,1.91-3.94,2.95-6.41
		c1.04-2.47,2.06-5,3.04-7.59c0.98-2.58,1.88-4.76,2.69-6.54c0.47-0.98,0.99-1.75,1.58-2.31c0.59-0.56,0.9-1.37,0.95-2.44
		c0.11-1.16,0.56-2.32,1.36-3.49c0.8-1.17,1.48-2.21,2.04-3.13c0.38-0.56,0.86-1.46,1.45-2.71c0.58-1.25,1.24-2.51,1.98-3.79
		c0.74-1.28,1.5-2.42,2.29-3.42c0.79-1,1.5-1.56,2.13-1.68c0.55-0.1,1.15-0.26,1.81-0.46c0.65-0.2,1.33-0.37,2.04-0.5
		c2.67-0.5,4.73-0.05,6.17,1.35c1.44,1.4,2.38,3.24,2.8,5.52c0.43,2.28,0.57,4.57,0.43,6.88c-0.14,2.31-0.04,4.36,0.29,6.17
		c0.07,0.39,0.17,0.8,0.29,1.23c0.12,0.43,0.22,0.87,0.31,1.35c0.31,1.65,0.45,3.29,0.43,4.92c-0.02,1.63,0.11,3.23,0.41,4.81
		c0.5,1.78,1.04,3.59,1.63,5.44c0.59,1.85,1.04,3.6,1.35,5.26c0.03,0.16,0.04,0.3,0.02,0.43c-0.02,0.12-0.01,0.27,0.02,0.43
		c0.15,0.79,0.41,1.52,0.78,2.19C257.54,143.05,257.98,143.66,258.49,144.22z"/>
	<path d="M306.97,91.29c-0.25-0.03-0.53-0.02-0.85,0.04c-0.31,0.06-0.46,0.29-0.42,0.69c0.03,0.4,0.09,0.84,0.18,1.31
		s0.15,0.91,0.18,1.31c0.03,0.4-0.07,0.62-0.3,0.67c-0.32,0.06-0.56-0.18-0.74-0.72c-0.18-0.53-0.31-1-0.38-1.39
		c-0.49,0.42-0.7,0.82-0.63,1.22c0.04,0.24,0.13,0.46,0.25,0.69c0.12,0.22,0.21,0.45,0.25,0.69c0.12,0.63,0,1.2-0.35,1.71
		c-0.35,0.51-0.47,1.08-0.35,1.71c0.04,0.24,0.13,0.46,0.25,0.69c0.12,0.22,0.21,0.45,0.25,0.69c0.13,0.71-0.06,1.44-0.57,2.18
		c-0.83,1.21-1.3,2.42-1.4,3.62c-0.1,1.2-0.5,2.31-1.21,3.34c-0.13,0.19-0.24,1.23-0.33,3.11c-0.1,1.89-0.19,3.66-0.29,5.3
		c0.03,0.16-0.14,0.68-0.5,1.56c-0.37,0.88-0.8,1.82-1.31,2.81c-0.51,0.99-1.05,1.91-1.62,2.75c-0.58,0.84-1.1,1.3-1.57,1.39
		c-0.16,0.03-0.39,0.01-0.68-0.06c-0.3-0.07-0.56-0.08-0.8-0.03c-0.16,0.03-0.31,0.08-0.46,0.15c-0.15,0.07-0.3,0.12-0.46,0.15
		c-1.57,0.29-3.08,0.07-4.52-0.68c-1.44-0.75-2.77-1.76-3.98-3.04c-1.22-1.28-2.28-2.71-3.18-4.29c-0.91-1.58-1.66-3.09-2.25-4.52
		c-0.46-1.14-0.93-2.57-1.42-4.31c-0.49-1.74-0.98-3.38-1.47-4.91c-0.49-1.54-0.96-2.85-1.41-3.95c-0.45-1.09-0.87-1.61-1.26-1.53
		c-0.47,0.09-0.87,0.88-1.21,2.36c-0.33,1.49-0.61,3.29-0.82,5.4c-0.21,2.12-0.37,4.34-0.46,6.68c-0.09,2.34-0.14,4.4-0.13,6.19
		c-0.06,1.88,0,4.17,0.18,6.86c0.18,2.69,0.26,5.3,0.24,7.83c-0.02,2.53-0.16,4.73-0.42,6.61c-0.26,1.88-0.82,2.9-1.69,3.06
		c-0.24,0.04-0.58,0.05-1.04,0.01c-0.46-0.04-0.94-0.13-1.46-0.28c-0.51-0.15-0.98-0.37-1.4-0.65c-0.42-0.29-0.67-0.67-0.76-1.14
		c-0.25-1.34-0.46-2.8-0.64-4.4c-0.18-1.59-0.29-3.18-0.34-4.76c-0.05-1.58-0.05-3.1,0-4.58c0.05-1.47,0.18-2.72,0.4-3.74
		c0.23-0.94,0.22-1.97-0.03-3.11c-0.25-1.13-0.23-2.01,0.06-2.63c0.47-1.39,0.6-2.8,0.37-4.22c-0.23-1.42-0.1-2.83,0.37-4.22
		c0.11-0.26,0.14-0.55,0.08-0.87c-0.06-0.31-0.08-0.63-0.06-0.96c-0.06-1.62,0.19-3.33,0.75-5.15c0.56-1.81,0.87-3.62,0.94-5.42
		c0.02-1.22,0.31-2.5,0.87-3.83c0.56-1.33,0.84-2.68,0.83-4.06c0.01-0.82,0.12-1.73,0.34-2.75c0.22-1.02,0.58-2,1.1-2.95
		c0.51-0.95,1.17-1.81,1.96-2.56c0.79-0.76,1.78-1.25,2.96-1.47c1.96-0.37,3.55-0.4,4.74-0.09c1.2,0.31,2.17,0.84,2.92,1.59
		c0.75,0.76,1.32,1.75,1.71,2.98c0.39,1.23,0.73,2.59,1.01,4.08c0.16,0.87,0.23,1.77,0.2,2.71c-0.03,0.94,0.04,1.85,0.2,2.71
		c0.07,0.39,0.19,0.78,0.34,1.16c0.15,0.38,0.27,0.76,0.34,1.16c0.12,0.63,0.1,1.32-0.04,2.08c-0.14,0.76-0.16,1.45-0.04,2.08
		c0.29,1.57,0.75,2.91,1.36,4.02c0.61,1.11,1.02,2.21,1.23,3.31c0.09,0.47,0.06,0.97-0.09,1.48c-0.15,0.52-0.19,0.97-0.11,1.36
		c0.07,0.39,0.41,0.76,1,1.1c0.59,0.34,1.11,0.59,1.54,0.75c1.47-2.15,2.72-4.49,3.75-7.05c1.03-2.55,2-4.97,2.92-7.26
		c0.92-2.29,1.86-4.31,2.83-6.08c0.97-1.77,2.14-2.94,3.49-3.52c-0.35-1.89-0.28-3.22,0.23-4.01c0.5-0.79,1.14-1.74,1.91-2.86
		c0.51-0.75,1.01-1.57,1.49-2.47c0.48-0.9,1.01-1.78,1.59-2.62c0.58-0.84,1.21-1.57,1.91-2.19c0.7-0.62,1.56-1.02,2.58-1.21
		c1.89-0.35,3.68,0,5.39,1.07c1.7,1.07,2.83,3.05,3.37,5.96c0.24,1.26,0.27,2.68,0.12,4.25c-0.15,1.58-0.34,3.18-0.57,4.8
		c-0.23,1.63-0.42,3.19-0.59,4.69c-0.17,1.5-0.14,2.83,0.08,4.01c0.07,0.39,0.15,0.79,0.22,1.18c0.07,0.39,0.19,0.78,0.34,1.16
		c0.13,0.71-0.01,1.26-0.42,1.67c-0.41,0.4-0.58,0.8-0.51,1.19c0.23,1.26,0.18,2.37-0.17,3.33c-0.35,0.96-0.38,2.23-0.08,3.8
		c0.15,0.79,0.34,1.52,0.59,2.21s0.44,1.38,0.57,2.09c0.21,1.1,0.16,2.39-0.13,3.87c-0.29,1.48-0.32,2.89-0.07,4.22
		c0.22,1.18,0.52,2.35,0.9,3.5c0.38,1.15,0.68,2.32,0.9,3.5c0.21,1.1,0.42,2.38,0.66,3.84c0.23,1.46,0.37,2.88,0.43,4.25
		c0.05,1.37-0.07,2.56-0.38,3.55c-0.3,0.99-0.89,1.57-1.75,1.73c-0.79,0.15-1.75-0.2-2.88-1.05c-1.13-0.85-1.88-1.81-2.25-2.88
		c-0.22-1.18-0.54-2.24-0.96-3.18c-0.42-0.94-0.85-1.83-1.29-2.69c-0.45-0.85-0.87-1.69-1.26-2.51c-0.4-0.82-0.68-1.66-0.84-2.53
		c-0.18-0.94-0.15-1.9,0.07-2.88c0.22-0.98,0.24-2.02,0.03-3.12c-0.21-1.1-0.42-2.24-0.64-3.42c-0.22-1.18-0.25-2.4-0.07-3.65
		c0.26-2.08,0.18-4.16-0.25-6.24c-0.43-2.08-0.64-4.17-0.62-6.29c0.01-2.12-0.12-4.25-0.4-6.39s-0.58-4.12-0.92-5.93
		c-0.16-0.87-0.39-1.43-0.68-1.7c-0.29-0.27-0.8-0.34-1.5-0.21C307.66,89.33,307.29,90.01,306.97,91.29z"/>
</g>
<g>
	<path class="st0" d="M101.13,325.29c-0.25-0.68-0.47-1.35-0.66-2.02c-0.18-0.67-0.4-1.34-0.65-2.02c-0.79-0.56-1.75-1.32-2.87-2.28
		c-1.12-0.96-2.21-1.99-3.26-3.09c-1.05-1.09-1.97-2.22-2.74-3.38c-0.78-1.15-1.15-2.13-1.13-2.93c0.07-2.67-0.4-5.11-1.4-7.34
		c-1.01-2.23-1.48-4.47-1.42-6.74c0.02-0.67,0.17-1.36,0.46-2.09c0.29-0.72,0.44-1.42,0.46-2.09c0.05-2-0.34-3.38-1.19-4.13
		c-0.85-0.75-1.26-1.47-1.24-2.13c0.01-0.4,0.22-0.89,0.64-1.48c0.42-0.59,0.63-1.15,0.65-1.68c0.02-0.67-0.1-1.37-0.34-2.11
		c-0.25-0.74-0.5-1.45-0.74-2.12c0.15-0.66,0.4-1.22,0.75-1.68c0.34-0.46,0.53-1.02,0.55-1.69c0.03-1.2-0.1-2.4-0.4-3.61
		c-0.3-1.21-0.44-2.41-0.4-3.61c0.02-0.8,0.11-1.63,0.27-2.49c0.15-0.86,0.25-1.69,0.27-2.49c0.02-0.8,0.01-1.57-0.04-2.3
		c-0.05-0.73-0.06-1.43-0.04-2.1c0.03-0.93,0.24-1.76,0.64-2.48c0.4-0.72,0.83-1.41,1.29-2.07c0.46-0.65,0.89-1.31,1.28-1.97
		c0.4-0.66,0.61-1.51,0.64-2.58c-0.12-0.67-0.17-1.27-0.15-1.81c0.01-0.53,0.03-1.13,0.05-1.8c0.07-2.53,0.5-4.55,1.31-6.07
		c0.8-1.51,1.23-3.2,1.28-5.07c0.01-0.53-0.01-1.03-0.06-1.5c-0.06-0.47-0.08-0.97-0.06-1.5c0.05-1.73,0.57-3.22,1.58-4.46
		c1.01-1.24,1.54-2.79,1.59-4.66c0.03-1.2-0.11-2.34-0.41-3.41c-0.3-1.07-0.44-2.08-0.42-3.01c0.03-1.07,0.45-1.92,1.27-2.57
		c0.82-0.64,1.24-1.43,1.26-2.37c0.04-1.33,0.47-2.42,1.29-3.27c0.82-0.84,1.75-1.75,2.77-2.73c1.03-0.97,1.96-2.15,2.8-3.53
		c0.84-1.38,1.29-3.27,1.35-5.67c0.03-1.2,0.26-2.26,0.69-3.18c0.42-0.92,0.95-1.78,1.57-2.56c0.62-0.78,1.27-1.57,1.96-2.35
		c0.69-0.78,1.25-1.7,1.68-2.76c0.29-1.06,0.85-1.94,1.67-2.66c0.82-0.71,1.64-1.39,2.46-2.03c0.82-0.64,1.57-1.32,2.26-2.04
		c0.69-0.71,1.05-1.67,1.08-2.87c0.57-1.32,1.28-2.83,2.12-4.54c0.85-1.71,1.79-3.32,2.83-4.83c1.04-1.5,2.18-2.77,3.4-3.81
		c1.23-1.03,2.51-1.53,3.84-1.5c2.13,0.06,4.49,0.36,7.08,0.89c2.59,0.54,4.8,1.37,6.64,2.48c2.1,1.26,3.98,2.04,5.64,2.35
		c1.66,0.31,3.08,0.62,4.28,0.92c1.19,0.3,2.11,0.76,2.76,1.38c0.65,0.62,0.95,1.86,0.9,3.73c-0.04,1.47-0.32,3.06-0.83,4.78
		c-0.52,1.72-1.09,3.41-1.74,5.06c-0.65,1.65-1.22,3.27-1.73,4.85c-0.51,1.59-0.78,2.98-0.81,4.18c-0.01,0.27-0.02,0.67-0.03,1.2
		c-0.01,0.53-0.16,0.87-0.43,0.99c-0.69,0.65-1.24,1.5-1.67,2.56c-0.43,1.06-0.83,2.11-1.19,3.17c-0.36,1.06-0.75,1.95-1.17,2.67
		c-0.42,0.72-0.9,1.08-1.43,1.06c-1.6-0.04-2.6-1.27-3-3.68c-0.4-2.41-0.6-5.05-0.59-7.92c0.01-2.87-0.02-5.5-0.09-7.9
		c-0.07-2.4-0.64-3.62-1.7-3.65c-1.07-0.03-2.04,0.28-2.93,0.92c-0.89,0.65-1.67,1.42-2.36,2.34c-0.69,0.92-1.35,1.76-1.97,2.55
		c-0.62,0.79-1.21,1.37-1.75,1.75c-0.68,0.38-1.43,1.03-2.25,1.94c-0.82,0.91-1.62,1.93-2.38,3.04c-0.76,1.11-1.43,2.23-1.99,3.35
		c-0.56,1.12-0.86,2.15-0.88,3.08c-0.01,0.4,0.05,0.67,0.18,0.8c-0.58,1.58-1.53,3.36-2.85,5.33c-1.32,1.96-2.67,3.83-4.05,5.59
		c-1.38,1.76-2.59,3.27-3.62,4.5c-1.03,1.24-1.55,1.93-1.56,2.06c-0.01,0.27,0.02,0.6,0.07,1c0.05,0.4,0.08,0.74,0.07,1
		c-0.02,0.8-0.32,1.83-0.88,3.08c-0.57,1.25-1.17,2.6-1.81,4.05c-0.64,1.45-1.22,2.97-1.72,4.56c-0.51,1.59-0.79,3.11-0.82,4.58
		c-0.01,0.27,0.02,0.5,0.08,0.7c0.06,0.2,0.09,0.44,0.08,0.7c-0.07,2.67-0.34,5.03-0.79,7.08c-0.46,2.06-0.95,4.11-1.47,6.16
		c-0.52,2.05-1.02,4.31-1.48,6.76c-0.47,2.46-0.74,5.28-0.83,8.48c-0.02,0.8,0.02,1.67,0.13,2.6c0.11,0.94,0.15,1.88,0.12,2.81
		c-0.02,0.67-0.14,1.33-0.35,1.99c-0.22,0.66-0.34,1.33-0.35,1.99c-0.02,0.67,0.13,1.24,0.45,1.71c0.32,0.48,0.47,0.98,0.46,1.51
		c-0.01,0.4-0.06,0.77-0.13,1.1c-0.08,0.33-0.12,0.7-0.13,1.1c-0.08,2.93,0.24,5.84,0.96,8.73c0.72,2.89,1.05,5.73,0.97,8.53
		c-0.04,1.33,0.19,2.84,0.68,4.52c0.49,1.68,1.24,3.3,2.27,4.86c1.02,1.56,2.39,2.87,4.1,3.91c1.7,1.05,3.69,1.6,5.96,1.66
		c1.07,0.03,2.75-0.53,5.05-1.66c2.3-1.14,4-2.36,5.1-3.66c0.55-0.65,1.2-1.13,1.94-1.45c0.74-0.31,1.45-0.56,2.12-0.74
		c0.67-0.18,1.28-0.4,1.82-0.65c0.54-0.25,0.82-0.71,0.84-1.38c0.01-0.27-0.02-0.6-0.07-1c-0.06-0.4-0.08-0.8-0.07-1.2
		c0.03-1.07,0.62-1.92,1.77-2.55c1.15-0.63,2.07-1.28,2.75-1.93c0.95-0.77,1.81-1.78,2.58-3.03c0.76-1.25,1.43-2.43,2-3.55
		c0.56-1.12,1.09-2.1,1.58-2.96c0.49-0.85,1.07-1.27,1.73-1.25c0.93,0.03,1.57-0.32,1.93-1.05c0.35-0.72,0.71-1.55,1.07-2.47
		c0.36-0.92,0.82-1.88,1.38-2.86c0.56-0.99,1.45-1.79,2.67-2.43c0.13,0,0.32,0.44,0.56,1.32c0.24,0.88,0.42,1.85,0.52,2.92
		c0.1,1.07,0.21,2.17,0.31,3.31c0.1,1.14,0.15,1.97,0.13,2.5c-0.01,0.4-0.1,1.03-0.25,1.89c-0.16,0.86-0.57,1.29-1.23,1.27
		c-0.53-0.01-0.95-0.62-1.25-1.83c-0.3-1.21-0.57-2.22-0.82-3.02c-2.09,3.41-3.27,6.18-3.53,8.31c-0.26,2.13-0.74,3.72-1.43,4.76
		c-0.97,1.44-1.82,3.05-2.53,4.83c-0.72,1.78-1.5,3.5-2.34,5.14c-0.84,1.65-1.78,3.02-2.81,4.12c-1.03,1.11-2.34,1.64-3.94,1.59
		c-0.27-0.01-0.53-0.08-0.79-0.22c-0.27-0.14-0.53-0.21-0.79-0.22c-0.27-0.01-0.4,0.12-0.41,0.39c-0.01,0.27,0.05,0.6,0.17,1.01
		c0.12,0.4,0.18,0.8,0.17,1.2c-0.01,0.4-0.33,1.13-0.96,2.17c-0.63,1.05-1.43,2.13-2.39,3.24c-0.96,1.11-2.13,2.07-3.48,2.91
		c-1.36,0.83-2.7,1.29-4.04,1.39c-1.07-0.03-1.88,0.32-2.43,1.04c-0.55,0.72-1.36,1.06-2.43,1.03c-1.07-0.03-2,0.11-2.81,0.42
		c-0.81,0.31-1.69,0.79-2.64,1.43c-1.18-0.7-2.4-1.3-3.65-1.8c-1.26-0.5-2.61-0.77-4.08-0.81c-0.27-0.01-0.6,0.01-1.01,0.07
		c-0.41,0.05-0.81,0.08-1.21,0.07c-0.54-0.01-1.08-0.13-1.61-0.34C102.2,325.62,101.66,325.43,101.13,325.29z M98.72,268.4
		c0.13-0.13,0.21-0.4,0.22-0.79l-0.19-0.21c-0.13,0-0.2-0.07-0.19-0.21c-0.28,0.26-0.41,0.46-0.42,0.59
		c-0.01,0.53,0.04,0.8,0.18,0.8L98.72,268.4z M105.46,240.98c0,0.13-0.14,0.33-0.42,0.59l0.39,0.41l0.41-0.39
		C105.85,241.46,105.72,241.25,105.46,240.98z M139.05,308.71c-0.13-0.14-0.19-0.24-0.19-0.31c0-0.07-0.06-0.17-0.19-0.31
		c0,0.13-0.07,0.23-0.21,0.3c-0.14,0.06-0.2,0.16-0.21,0.29c-0.01,0.53,0.11,0.8,0.38,0.81c0,0.13,0.06,0.14,0.2,0.01l0.01-0.2
		c0-0.13,0.04-0.23,0.11-0.3C139,308.94,139.04,308.84,139.05,308.71z M160.98,274.29c-0.02,0.8-0.05,1.83-0.08,3.1
		c-0.03,1.27-0.32,2.03-0.86,2.28c-0.52-0.41-0.97-1.19-1.34-2.34c-0.37-1.14-0.55-1.98-0.53-2.51c0.02-0.8,0.44-1.52,1.26-2.17
		l-0.2-0.01c0.39,0.28,0.72,0.56,0.98,0.83C160.46,273.74,160.72,274.02,160.98,274.29z M159.46,271.45
		c0.02-0.8,0.17-1.46,0.45-1.99c0.28-0.52,0.53-1.02,0.74-1.48c0.21-0.46,0.65-0.68,1.32-0.66c0.53,0.01,0.82,0.39,0.87,1.12
		c0.05,0.74,0.06,1.3,0.05,1.7c-0.04,1.6-0.68,2.98-1.91,4.15l0.19,0.21l-1.75-1.85L159.46,271.45z M167.25,271.86
		c-0.39-0.28-0.72-0.52-0.98-0.73c-0.26-0.21-0.39-0.51-0.38-0.91c0.29-1.06,0.59-2.32,0.9-3.78c0.31-1.46,0.93-2.38,1.88-2.75
		c0.4,0.01,0.58,0.68,0.55,2.02c-0.03,1.07-0.09,2.2-0.19,3.4C168.93,270.3,168.34,271.22,167.25,271.86z M177.86,249.54
		c-0.06,2.4-0.66,4.55-1.78,6.45c-1.12,1.9-2.68,2.83-4.68,2.77c-0.53-0.01-0.9-0.16-1.09-0.43c-0.19-0.27-0.61-0.82-1.26-1.63
		c0.13-0.13,0.17-0.23,0.11-0.3c-0.07-0.07-0.03-0.17,0.11-0.3c1.36-1.16,2.4-2.47,3.11-3.92c0.71-1.45,1.41-2.86,2.12-4.24
		c0.7-1.38,1.54-2.62,2.5-3.73c0.96-1.11,2.38-1.9,4.27-2.38c0.93,0.03,1.59,0.38,1.97,1.05c0.38,0.68,0.56,1.42,0.54,2.22
		c-0.04,1.47-0.57,2.45-1.58,2.96C181.19,248.56,179.74,249.06,177.86,249.54z"/>
	<path class="st0" d="M274.94,276.97c-1.17,3.44-2.54,6.87-4.12,10.29c-1.57,3.43-3.01,6.86-4.32,10.29
		c-0.73,1.85-1.39,3.9-1.99,6.15c-0.6,2.25-1.16,4.41-1.69,6.46c-0.53,2.06-1.05,4.01-1.57,5.86c-0.52,1.85-1.2,3.3-2.03,4.35
		c-0.01,0.27-0.74,2.25-2.18,5.94c-1.45,3.69-2.25,8.54-2.41,14.54c-0.06,2.4-0.59,4.32-1.56,5.76c-0.97,1.44-2.09,3.21-3.35,5.31
		c-0.98,1.57-2.4,2.47-4.27,2.69c-1.87,0.21-3.61,0.3-5.21,0.26c-1.6-0.04-2.83-0.25-3.68-0.6c-0.86-0.36-1.58-0.81-2.16-1.36
		c-0.59-0.55-1.14-1.16-1.65-1.84c-0.52-0.68-1.3-1.37-2.35-2.06c-1.18-0.7-1.82-1.68-1.92-2.95c-0.1-1.27-0.48-2.18-1.13-2.73
		c-1.43-1.51-2.15-3.09-2.17-4.76c-0.02-1.67-0.08-3.44-0.16-5.31c0.03-1.07,0.12-2.1,0.28-3.09c0.16-1,0.25-2.03,0.28-3.09
		c0.04-1.33-0.44-2.41-1.41-3.24c-0.98-0.83-1.45-1.97-1.41-3.44c0.13-4.93,0.37-9.96,0.71-15.09c0.34-5.12,0.78-10.21,1.31-15.27
		c0.2-2.4,0.4-5.02,0.61-7.89c0.21-2.86,0.45-5.66,0.73-8.38c0.27-2.72,0.67-5.25,1.21-7.57c0.53-2.32,1.34-4.13,2.45-5.44
		c0.54-0.52,0.83-1.24,0.86-2.18c0.02-0.67-0.03-1.37-0.14-2.1c-0.11-0.74-0.16-1.5-0.14-2.31c0.03-1.06,0.16-2.13,0.39-3.19
		c0.23-1.06,0.36-2.12,0.39-3.19c0.01-0.53-0.04-1.03-0.16-1.5c-0.12-0.47-0.17-0.97-0.16-1.5c0.03-1.2,0.58-2.08,1.64-2.66
		c1.06-0.57,1.6-1.26,1.62-2.06c-0.23-1.07-0.46-2.14-0.7-3.22c-0.23-1.07-0.46-2.14-0.69-3.22c-2.25,0.21-3.78,0.63-4.6,1.28
		c-0.82,0.65-1.41,1.33-1.76,2.05c-0.35,0.73-0.71,1.38-1.05,1.97c-0.35,0.59-1.13,0.94-2.33,1.04c-0.94,0.24-1.63,1.09-2.07,2.54
		c-0.44,1.46-1.27,2.44-2.48,2.93c-0.95,0.51-1.63,0.99-2.04,1.44c-0.41,0.46-0.86,0.95-1.34,1.46c-0.48,0.52-1.1,1.14-1.85,1.85
		c-0.75,0.71-1.94,1.52-3.57,2.4c-0.69,0.92-1.09,1.94-1.18,3.07c-0.1,1.13-0.23,2.19-0.39,3.19c-0.16,1-0.52,1.92-1.08,2.77
		c-0.56,0.85-1.51,1.39-2.85,1.62c-1.63,1.02-2.45,1.87-2.47,2.53c-0.02,0.67-0.31,1.59-0.88,2.78c-0.71,1.58-1.86,3.25-3.44,5.01
		c-1.58,1.76-2.53,3.7-2.86,5.83c-0.15,0.53-0.4,1.06-0.74,1.58c-0.35,0.53-0.66,1.05-0.94,1.57c-1.54,2.76-2.92,5.52-4.13,8.29
		c-1.21,2.77-2.61,5.27-4.2,7.49c-1.6,2.23-3.54,4.01-5.85,5.34c-2.31,1.34-5.25,1.96-8.85,1.86c-3.6-0.1-6.72-1.78-9.37-5.06
		c-2.65-3.27-3.88-8.31-3.69-15.1c0.09-3.33,0.58-6.62,1.47-9.86c0.89-3.24,1.64-6.46,2.26-9.64c0.31-1.59,0.91-3.01,1.82-4.25
		c0.9-1.24,1.51-2.79,1.83-4.65c0.31-1.46,0.74-2.78,1.31-3.97c0.56-1.19,1.23-2.43,2-3.75c0.77-1.31,1.64-2.76,2.62-4.33
		c0.97-1.57,2.1-3.48,3.36-5.71c1.38-1.83,2.8-3.69,4.25-5.59c1.45-1.89,2.61-3.96,3.47-6.21c0.43-1.19,1.29-2.27,2.59-3.23
		c1.29-0.96,2.71-1.73,4.26-2.29c1.55-0.56,3.09-0.98,4.64-1.27c1.54-0.29,2.91-0.42,4.11-0.39c4,0.11,8.03,1.35,12.1,3.73
		c1.44,0.84,2.67,2.17,3.69,4c1.02,1.83,1.99,2.75,2.93,2.78c0.8-0.11,1.68-0.62,2.64-1.53c0.96-0.91,2.05-1.98,3.29-3.21
		c1.23-1.23,2.57-2.4,4-3.49c1.43-1.09,2.88-1.89,4.37-2.38c1.34-0.36,2.84-1.25,4.51-2.68c1.67-1.42,3.29-2.11,4.85-2.07
		c2.91,0.08,5.61,0.95,8.1,2.62c2.49,1.67,3.69,4.04,3.61,7.1c-0.37,3.72-0.67,7.45-0.9,11.18c-0.24,3.73-1.2,7.37-2.9,10.93
		c-0.72,1.85-1.21,4.1-1.48,6.76c-0.27,2.66-0.48,5.29-0.61,7.89c-0.14,2.6-0.37,4.96-0.69,7.08c-0.33,2.13-0.9,3.65-1.72,4.56
		c-0.83,1.18-1.51,2.86-2.04,5.05c-0.53,2.19-0.92,4.58-1.19,7.17c-0.27,2.59-0.47,5.19-0.61,7.79c-0.14,2.6-0.23,4.96-0.29,7.09
		c-0.01,0.27,0.02,0.57,0.08,0.9c0.06,0.34,0.08,0.7,0.07,1.1c-0.04,1.47-0.25,2.86-0.61,4.18c-0.37,1.33-0.57,2.72-0.61,4.18
		c-0.09,3.33,0.09,6.61,0.54,9.82c0.45,3.21,0.65,5.75,0.6,7.62c-0.01,0.27-0.05,0.56-0.13,0.9c-0.08,0.33-0.12,0.63-0.12,0.9
		c0.36,1.61,0.66,2.88,0.9,3.83c0.24,0.94,0.52,1.81,0.83,2.62c0.31,0.81,0.6,1.22,0.87,1.22c0.67,0.02,1.47-0.96,2.39-2.94
		c0.92-1.98,1.81-3.62,2.65-4.93c1.4-2.1,2.38-4.97,2.95-8.62c0.57-3.65,1.43-7,2.59-10.03c0.44-1.32,0.91-2.84,1.43-4.56
		c0.52-1.72,1.03-3.41,1.55-5.06c0.51-1.65,1.09-3.17,1.73-4.55c0.64-1.38,1.31-2.4,2-3.05c0.54-0.25,0.96-1.08,1.27-2.47
		c0.31-1.39,0.65-2.95,1.03-4.67c0.38-1.72,0.83-3.48,1.35-5.26c0.52-1.79,1.26-3.27,2.23-4.44c1.94-2.21,3.58-4.71,4.93-7.47
		c1.35-2.76,3.33-5.24,5.94-7.44c0.4,0.01,0.8,0.22,1.19,0.63c0.26,0.28,0.51,0.75,0.77,1.42c0.25,0.68,0.36,1.61,0.33,2.81
		c-0.03,1.07-0.2,2.4-0.51,3.99C276.19,272.81,275.67,274.73,274.94,276.97z M210.26,235.41c-1.44-1.24-3.09-1.88-4.95-1.93
		c-1.6-0.04-3.15,0.38-4.64,1.27c-3.26,2.18-6.2,4.83-8.82,7.96c-2.62,3.13-4.98,6.54-7.08,10.21c-2.1,3.68-3.97,7.5-5.61,11.45
		c-1.64,3.96-2.98,7.79-4.01,11.5c-0.14,0.13-0.21,0.39-0.22,0.79c-0.01,0.27,0.05,0.57,0.18,0.91c0.12,0.34,0.32,0.51,0.59,0.52
		c0.4,0.01,1.18-0.57,2.35-1.74c1.16-1.17,2.4-2.57,3.72-4.2c1.31-1.63,2.59-3.3,3.84-5c1.25-1.7,2.22-3.07,2.91-4.12
		c1.53-2.22,3.12-4.32,4.77-6.27c1.65-1.96,3.44-3.77,5.35-5.46c1.64-1.42,3.02-3.05,4.13-4.89c1.12-1.84,2.62-3.26,4.52-4.28
		c-0.13,0,0.22-0.73,1.06-2.17c0.84-1.44,1.54-2.69,2.1-3.75c0-0.13-0.03-0.23-0.09-0.3C210.28,235.84,210.25,235.68,210.26,235.41z
		"/>
	<path class="st0" d="M285.29,316.47c-0.03,1.07-0.33,2.16-0.89,3.28c-0.56,1.12-0.86,2.28-0.89,3.48c-0.03,1.2-0.54,2.69-1.52,4.46
		c-0.98,1.77-1.5,3.59-1.55,5.46c-0.01,0.4,0.01,0.8,0.07,1.2c0.06,0.4,0.08,0.8,0.07,1.2c-0.02,0.8-0.5,1.25-1.44,1.36
		c-0.94,0.11-1.67,0.16-2.2,0.14c-2.67-0.07-4.62-0.52-5.87-1.36c-1.24-0.83-1.83-2.58-1.76-5.25c0.01-0.54,0.07-1.27,0.16-2.2
		c0.09-0.93,0.25-1.86,0.48-2.79c0.23-0.93,0.52-1.72,0.86-2.38c0.35-0.66,0.73-0.98,1.13-0.97c0.13,0,0.73,0.15,1.79,0.45
		c-0.26-0.28-0.39-0.48-0.38-0.61c0.27,0.01,0.46,0.08,0.59,0.22c-0.13,0-0.24,0.03-0.3,0.09c-0.07,0.06-0.17,0.1-0.3,0.09
		c-0.24-0.81-0.42-1.65-0.53-2.52c-0.11-0.87-0.28-1.71-0.53-2.52l-0.01,0.2c-0.13,0-0.2-0.07-0.19-0.21
		c0.01-0.4,0.47-1.29,1.37-2.66c0.9-1.38,1.88-2.82,2.92-4.32c1.04-1.5,2.01-2.88,2.91-4.12c0.9-1.24,1.42-1.93,1.56-2.06
		c0.41-0.52,1-1.14,1.75-1.85c0.75-0.71,1.5-1.43,2.26-2.14c0.75-0.71,1.67-1.59,2.77-2.63c0.01-0.4-0.21-0.91-0.66-1.52
		c-0.45-0.61-0.67-1.25-0.65-1.92c0.02-0.8,0.31-1.59,0.86-2.38c0.55-0.79,1.21-1.47,1.96-2.05c0.75-0.58,1.4-1.09,1.94-1.55
		c0.54-0.45,0.82-0.88,0.83-1.28c0.01-0.27-0.18-0.74-0.56-1.42c0.28-0.66,0.7-1.21,1.25-1.67c0.54-0.45,0.83-1.08,0.85-1.88
		c0.25,0.54,0.71,0.82,1.38,0.84c0.27,0.01,0.77-0.18,1.52-0.56c0.74-0.38,1.12-0.84,1.14-1.37c0.01-0.27-0.02-0.5-0.08-0.7
		c-0.06-0.2-0.09-0.43-0.08-0.7c0.01-0.4,0.22-0.92,0.64-1.58c1.54-2.89,2.68-5.5,3.41-7.81c0.73-2.31,1.14-5,1.22-8.07
		c0.04-1.46,0.01-3-0.08-4.6c-0.09-1.6-0.18-3.14-0.28-4.61c-0.73-2.55-1.18-5.53-1.36-8.94c-0.18-3.41-0.39-6.64-0.64-9.72
		c-0.25-3.07-0.71-5.69-1.39-7.84c-0.68-2.15-1.88-3.25-3.61-3.3c-1.2-0.03-2.92,0.66-5.16,2.06c-2.24,1.41-4.17,2.62-5.8,3.64
		c-1.19-0.3-2.67-0.97-4.45-2.02c-1.77-1.05-2.65-1.97-2.63-2.77c0.01-0.27,0.73-0.91,2.15-1.94c1.43-1.03,3.22-2.08,5.39-3.16
		c2.16-1.07,4.42-2.05,6.78-2.92c2.36-0.87,4.47-1.28,6.33-1.23c1.6,0.04,3.39,0.43,5.37,1.15c1.98,0.72,3.82,1.64,5.53,2.75
		c1.7,1.11,3.13,2.48,4.29,4.12c1.16,1.63,1.71,3.32,1.67,5.05c-0.01,0.27-0.05,0.47-0.12,0.6c-0.07,0.13-0.11,0.33-0.12,0.6
		l0.19,0.41l-0.19-0.41c0.64,0.95,1.31,2,2.01,3.16c0.7,1.15,1.04,2.06,1.03,2.73c-0.01,0.27-0.08,0.6-0.23,0.99
		c-0.14,0.4-0.22,0.73-0.23,1c0.63,1.22,0.93,2.62,0.89,4.22c-0.02,0.67-0.17,1.37-0.46,2.09c-0.29,0.73-0.44,1.42-0.46,2.09
		c-0.02,0.8,0.36,1.61,1.13,2.43c0.78,0.82,1.57,1.24,2.37,1.26c0.93,0.03,1.88-0.28,2.83-0.92c0.95-0.64,1.87-1.38,2.76-2.23
		c0.89-0.84,1.65-1.69,2.27-2.54c0.62-0.85,1.14-1.4,1.54-1.66c0.68-0.38,1.53-1.16,2.56-2.33s2.2-2.54,3.51-4.11
		c1.31-1.57,2.75-3.09,4.33-4.58c1.57-1.49,3.31-2.68,5.2-3.56c0.13,0,0.74-0.51,1.84-1.55c1.09-1.04,2.29-2.17,3.59-3.4
		c1.3-1.23,2.59-2.33,3.89-3.3c1.29-0.97,2.21-1.44,2.74-1.43c1.07,0.03,2.52,0.44,4.37,1.22c1.85,0.78,3.65,1.77,5.42,2.95
		c1.77,1.18,3.3,2.46,4.6,3.83c1.29,1.37,1.93,2.59,1.9,3.65c-0.02,0.67-0.57,1.19-1.64,1.56c-1.08,0.37-1.95,0.55-2.62,0.53
		c-3.6-0.1-7.09,0.68-10.47,2.32c-3.38,1.65-6.7,3.66-9.97,6.05c-3.27,2.39-6.47,4.97-9.61,7.76c-3.14,2.79-6.28,5.28-9.41,7.47
		c-0.71,1.45-1.54,2.44-2.48,2.94c-0.95,0.51-1.83,1.12-2.65,1.83c-0.82,0.72-1.55,1.73-2.18,3.05c-0.64,1.32-0.99,3.45-1.07,6.39
		c-0.08,3.07-0.07,6.18,0.05,9.33c0.11,3.15,0.13,6.32,0.04,9.53c-0.04,1.47,0.34,3.35,1.15,5.65c0.8,2.3,1.91,4.5,3.32,6.61
		c1.41,2.11,3.06,3.96,4.95,5.55c1.89,1.59,3.84,2.41,5.84,2.46c2.4,0.07,4.88-0.67,7.46-2.2c2.57-1.53,5.12-3.26,7.64-5.19
		c2.52-1.93,4.93-3.67,7.24-5.21c2.31-1.54,4.39-2.28,6.26-2.23c0.4,0.01,0.93,0.09,1.59,0.24c0.66,0.15,0.98,0.56,0.97,1.23
		c-0.04,1.6-0.58,3.06-1.62,4.36c-1.04,1.31-2.17,2.44-3.39,3.41c-1.23,0.97-2.39,1.87-3.47,2.71c-1.09,0.84-1.78,1.65-2.07,2.45
		c-0.72,1.96-1.99,3.44-3.82,4.44c-1.83,1-3.82,1.8-5.97,2.39c-2.96,0.71-5.75,1.75-8.39,3.12c-2.64,1.37-5.29,2.02-7.96,1.95
		c-2.4-0.06-4.62-0.69-6.65-1.88c-2.04-1.19-3.9-2.61-5.59-4.25c-1.69-1.65-3.25-3.35-4.66-5.13c-1.42-1.77-2.71-3.27-3.88-4.5
		c-0.65-0.68-0.89-1.49-0.73-2.42c0.16-0.93-0.09-1.74-0.73-2.42c-0.65-0.55-1.17-1.1-1.56-1.64c-0.39-0.54-0.77-1.15-1.15-1.83
		c-0.26-0.27-0.41-0.88-0.45-1.81c-0.04-0.93-0.08-1.93-0.12-3c-0.04-1.07-0.21-2.01-0.52-2.82c-0.31-0.81-0.74-1.22-1.27-1.23
		c-1.07-0.03-2.12,0.54-3.15,1.71c-1.03,1.17-2.01,2.62-2.92,4.32c-0.92,1.71-1.79,3.42-2.64,5.13c-0.85,1.71-1.62,3.09-2.31,4.14
		c-1.66,2.36-2.93,4.92-3.81,7.7c-0.88,2.78-2.34,5.14-4.39,7.08c0.27-0.26,0.41-0.46,0.42-0.59c0,0.13-0.04,0.23-0.11,0.3
		C285.32,316.24,285.29,316.34,285.29,316.47z M279.36,321.11c0.01-0.53-0.11-0.8-0.38-0.81c-0.4-0.01-0.74,0.31-1.03,0.97
		c-0.01,0.4,0.25,0.61,0.78,0.62C279.14,321.9,279.34,321.64,279.36,321.11z M283.68,309.22l-0.19-0.41
		c-0.53-0.01-0.8,0.11-0.81,0.38c-0.01,0.27,0.19,0.41,0.59,0.42L283.68,309.22z M285.62,304.27c0.01-0.4-0.11-0.73-0.37-1.01
		l-0.21,0.2l-0.01,0.4c0,0.13-0.01,0.23-0.01,0.3C285.02,304.22,285.22,304.26,285.62,304.27z M291.77,291.23
		c0.13-0.13,0.21-0.33,0.22-0.59l-0.39-0.21c0,0.13-0.04,0.23-0.11,0.3c-0.07,0.07-0.1,0.17-0.11,0.3L291.77,291.23z M318.65,273.95
		c-0.01,0.27,0.05,0.47,0.18,0.61c0.13,0.14,0.26,0.34,0.38,0.61c0.14-0.26,0.28-0.46,0.42-0.59c0.13-0.13,0.21-0.33,0.22-0.59
		c0-0.13-0.06-0.3-0.19-0.51c-0.13-0.2-0.26-0.44-0.38-0.71L318.65,273.95z"/>
	<path class="st0" d="M486.45,282.7c-1.17,3.44-2.54,6.87-4.12,10.29c-1.57,3.43-3.01,6.86-4.32,10.29
		c-0.73,1.85-1.39,3.9-1.99,6.15c-0.6,2.25-1.16,4.41-1.69,6.46c-0.53,2.06-1.05,4.01-1.57,5.86c-0.52,1.85-1.2,3.3-2.04,4.35
		c-0.01,0.27-0.73,2.25-2.18,5.94c-1.45,3.69-2.25,8.54-2.41,14.54c-0.07,2.4-0.59,4.32-1.56,5.76c-0.97,1.44-2.09,3.21-3.35,5.31
		c-0.98,1.57-2.4,2.47-4.27,2.69c-1.87,0.21-3.61,0.3-5.21,0.26c-1.6-0.04-2.83-0.25-3.68-0.6c-0.86-0.36-1.58-0.81-2.17-1.36
		c-0.58-0.55-1.14-1.16-1.65-1.84c-0.52-0.68-1.3-1.37-2.34-2.06c-1.18-0.7-1.82-1.68-1.92-2.95c-0.1-1.27-0.48-2.18-1.13-2.73
		c-1.43-1.51-2.15-3.09-2.17-4.76c-0.02-1.67-0.08-3.44-0.16-5.31c0.03-1.07,0.12-2.1,0.28-3.09c0.16-1,0.25-2.03,0.28-3.09
		c0.04-1.33-0.44-2.41-1.41-3.24c-0.98-0.83-1.45-1.97-1.41-3.44c0.13-4.93,0.37-9.96,0.71-15.09c0.34-5.12,0.78-10.21,1.31-15.27
		c0.2-2.4,0.4-5.02,0.61-7.89c0.21-2.86,0.45-5.65,0.73-8.38c0.27-2.72,0.67-5.25,1.21-7.57c0.53-2.32,1.34-4.13,2.45-5.44
		c0.54-0.52,0.83-1.24,0.86-2.18c0.02-0.67-0.03-1.37-0.14-2.1c-0.12-0.73-0.16-1.5-0.14-2.3c0.03-1.06,0.16-2.13,0.39-3.19
		c0.23-1.06,0.36-2.12,0.39-3.19c0.01-0.53-0.04-1.03-0.16-1.5c-0.12-0.47-0.17-0.97-0.16-1.5c0.03-1.2,0.58-2.08,1.64-2.66
		c1.06-0.57,1.6-1.26,1.62-2.06c-0.23-1.07-0.46-2.14-0.7-3.22c-0.23-1.07-0.46-2.14-0.69-3.22c-2.25,0.21-3.78,0.63-4.6,1.28
		c-0.82,0.65-1.41,1.33-1.76,2.05c-0.35,0.73-0.71,1.38-1.05,1.97c-0.35,0.59-1.13,0.94-2.33,1.04c-0.94,0.24-1.63,1.09-2.07,2.54
		c-0.44,1.46-1.27,2.44-2.48,2.93c-0.95,0.51-1.63,0.99-2.04,1.44c-0.41,0.46-0.86,0.95-1.34,1.46c-0.48,0.52-1.1,1.14-1.85,1.85
		c-0.75,0.71-1.94,1.52-3.57,2.4c-0.69,0.92-1.09,1.94-1.18,3.07c-0.1,1.13-0.23,2.19-0.39,3.19c-0.16,1-0.52,1.92-1.08,2.77
		c-0.56,0.85-1.51,1.39-2.84,1.62c-1.63,1.02-2.45,1.87-2.47,2.53c-0.02,0.67-0.31,1.59-0.88,2.78c-0.71,1.58-1.86,3.25-3.44,5.01
		c-1.58,1.76-2.54,3.7-2.86,5.83c-0.15,0.53-0.4,1.06-0.74,1.58c-0.35,0.53-0.66,1.05-0.94,1.57c-1.54,2.76-2.92,5.52-4.13,8.29
		s-2.61,5.27-4.2,7.49c-1.6,2.23-3.54,4.01-5.85,5.34c-2.31,1.34-5.25,1.96-8.85,1.86c-3.6-0.1-6.72-1.78-9.37-5.06
		c-2.65-3.27-3.88-8.31-3.69-15.1c0.09-3.33,0.58-6.62,1.47-9.86c0.89-3.24,1.64-6.46,2.26-9.64c0.31-1.59,0.91-3.01,1.82-4.25
		c0.9-1.24,1.51-2.79,1.83-4.65c0.31-1.46,0.74-2.78,1.31-3.97c0.56-1.18,1.23-2.43,2-3.75c0.77-1.31,1.64-2.76,2.62-4.33
		c0.97-1.57,2.09-3.48,3.36-5.71c1.38-1.83,2.8-3.69,4.25-5.59c1.45-1.89,2.61-3.96,3.47-6.21c0.43-1.19,1.29-2.26,2.59-3.23
		c1.29-0.96,2.71-1.73,4.26-2.29c1.55-0.56,3.09-0.98,4.64-1.27c1.54-0.29,2.91-0.42,4.11-0.39c4,0.11,8.03,1.35,12.1,3.73
		c1.44,0.84,2.67,2.17,3.69,4c1.02,1.83,1.99,2.76,2.93,2.78c0.8-0.11,1.68-0.62,2.64-1.53c0.96-0.91,2.05-1.98,3.29-3.21
		c1.23-1.23,2.57-2.4,4-3.49c1.43-1.09,2.88-1.89,4.37-2.38c1.34-0.36,2.84-1.25,4.51-2.68c1.67-1.42,3.29-2.11,4.85-2.07
		c2.91,0.08,5.61,0.95,8.1,2.62c2.49,1.67,3.69,4.04,3.61,7.1c-0.37,3.72-0.67,7.45-0.9,11.18c-0.23,3.73-1.2,7.37-2.9,10.93
		c-0.72,1.85-1.21,4.1-1.48,6.76c-0.27,2.66-0.48,5.29-0.61,7.89c-0.14,2.6-0.37,4.96-0.69,7.08c-0.33,2.13-0.9,3.65-1.72,4.56
		c-0.83,1.18-1.51,2.86-2.04,5.05c-0.53,2.19-0.92,4.58-1.2,7.17c-0.27,2.59-0.47,5.19-0.61,7.79c-0.14,2.6-0.23,4.96-0.29,7.1
		c-0.01,0.27,0.02,0.57,0.07,0.9c0.06,0.34,0.08,0.7,0.07,1.1c-0.04,1.47-0.25,2.86-0.61,4.18c-0.37,1.33-0.57,2.72-0.61,4.18
		c-0.09,3.33,0.09,6.61,0.54,9.82c0.45,3.21,0.65,5.75,0.6,7.62c-0.01,0.27-0.05,0.56-0.13,0.9c-0.08,0.33-0.12,0.63-0.12,0.9
		c0.36,1.61,0.66,2.88,0.9,3.83c0.24,0.94,0.52,1.81,0.83,2.62c0.31,0.81,0.6,1.22,0.87,1.22c0.67,0.02,1.47-0.96,2.39-2.94
		c0.92-1.97,1.81-3.62,2.65-4.93c1.4-2.1,2.38-4.97,2.95-8.62c0.57-3.65,1.43-6.99,2.59-10.03c0.44-1.32,0.92-2.84,1.43-4.56
		c0.52-1.72,1.03-3.4,1.55-5.06c0.51-1.65,1.09-3.17,1.73-4.55c0.64-1.38,1.31-2.4,2-3.05c0.54-0.25,0.96-1.08,1.27-2.47
		c0.31-1.39,0.65-2.95,1.03-4.67c0.38-1.72,0.83-3.48,1.35-5.26s1.26-3.27,2.23-4.44c1.94-2.21,3.58-4.71,4.93-7.47
		c1.35-2.76,3.33-5.24,5.93-7.44c0.4,0.01,0.8,0.22,1.19,0.63c0.26,0.28,0.51,0.75,0.76,1.42c0.25,0.68,0.36,1.61,0.33,2.81
		c-0.03,1.07-0.2,2.4-0.51,3.99C487.71,278.53,487.19,280.45,486.45,282.7z M421.77,241.13c-1.44-1.24-3.09-1.88-4.95-1.93
		c-1.6-0.04-3.15,0.38-4.64,1.27c-3.26,2.18-6.2,4.83-8.82,7.96c-2.62,3.13-4.98,6.54-7.08,10.21c-2.1,3.68-3.97,7.5-5.61,11.45
		c-1.64,3.96-2.98,7.79-4.01,11.5c-0.14,0.13-0.21,0.39-0.22,0.79c-0.01,0.27,0.05,0.57,0.18,0.91c0.12,0.34,0.32,0.51,0.59,0.52
		c0.4,0.01,1.18-0.57,2.35-1.74c1.16-1.17,2.4-2.57,3.72-4.2c1.31-1.63,2.59-3.3,3.84-5c1.25-1.7,2.21-3.07,2.91-4.12
		c1.53-2.22,3.12-4.32,4.77-6.27c1.65-1.96,3.43-3.77,5.35-5.46c1.64-1.42,3.02-3.05,4.13-4.89c1.12-1.84,2.62-3.26,4.52-4.28
		c-0.13,0,0.22-0.73,1.06-2.17c0.84-1.44,1.54-2.69,2.1-3.74c0-0.13-0.03-0.23-0.09-0.3C421.79,241.57,421.77,241.4,421.77,241.13z"
		/>
	<path class="st0" d="M492.21,262.85c0.4,0.01,0.8-0.01,1.2-0.07c0.4-0.05,0.73-0.08,1-0.07c0.93,0.03,1.88-0.61,2.85-1.92
		c0.97-1.31,2.04-2.85,3.23-4.62c1.18-1.77,2.46-3.5,3.84-5.2c1.38-1.69,2.88-2.92,4.5-3.68c0.96-1.17,2.41-2.7,4.33-4.58
		c1.92-1.88,4.13-3.75,6.65-5.62c2.52-1.86,5.36-3.42,8.53-4.67c3.17-1.25,6.48-1.83,9.95-1.73c1.33,0.04,2.6,0.24,3.79,0.6
		c1.19,0.37,2.38,0.76,3.57,1.2c1.06,0.3,1.71,0.88,1.95,1.75c0.24,0.88,0.9,1.32,1.96,1.35c0.92,0.29,1.78,0.92,2.55,1.87
		c0.78,0.96,1.45,2.01,2.02,3.16c0.57,1.15,1,2.3,1.31,3.44c0.3,1.14,0.45,1.98,0.43,2.51c-0.08,2.8-0.53,6.09-1.37,9.87
		c-0.84,3.78-2.03,7.18-3.58,10.21c-1.27,2.5-2.7,4.83-4.29,6.99c-1.59,2.16-2.96,4.56-4.1,7.19c-0.72,1.98-1.87,3.68-3.44,5.11
		c-1.57,1.43-3.12,2.99-4.63,4.68c-0.69,0.65-1.31,1.46-1.87,2.45c-0.56,0.99-1.19,1.94-1.88,2.85c-0.69,0.92-1.45,1.73-2.27,2.44
		c-0.82,0.71-1.76,1.12-2.83,1.22c-1.07-0.03-1.74,0.22-2.02,0.75c-0.28,0.53-0.43,1.12-0.45,1.79c-0.03,0.93-1.12,1.94-3.28,3.01
		c-2.16,1.08-4.66,2.07-7.48,3c-2.83,0.92-5.62,1.68-8.37,2.27c-2.75,0.59-4.79,0.87-6.12,0.83c-0.93-0.03-1.83-0.28-2.68-0.77
		c-0.86-0.49-1.75-0.75-2.68-0.77c-0.93-0.03-1.75,0.65-2.46,2.04c-0.71,1.38-1.32,3.06-1.84,5.05c-0.52,1.99-0.91,3.98-1.16,5.97
		c-0.25,1.99-0.4,3.59-0.43,4.79c-0.03,1.07,0.04,2.17,0.21,3.31c0.17,1.14,0.24,2.24,0.21,3.31c-0.03,1.07-0.09,2.06-0.18,3
		c-0.09,0.93-0.15,1.93-0.18,3c-0.03,1.2,0.27,2.14,0.92,2.83c0.78,0.69,1.32,1.54,1.63,2.55c0.3,1.01,0.51,2.11,0.61,3.32
		c0.1,1.2,0.13,2.44,0.1,3.7c-0.03,1.27,0,2.37,0.11,3.3c0.35,1.74,0.78,3.22,1.28,4.44c0.5,1.21,0.73,2.55,0.69,4.02
		c-0.02,0.8-0.04,1.66-0.07,2.6c-0.03,0.93-0.28,1.79-0.77,2.58c-0.49,0.79-1.27,1.43-2.35,1.94c-1.08,0.5-2.69,0.73-4.82,0.67
		c-1.2-0.03-2.32-0.63-3.35-1.79c-1.04-1.16-1.93-2.69-2.68-4.57c-0.75-1.89-1.32-4.07-1.72-6.55c-0.4-2.48-0.56-5.05-0.49-7.72
		c0.03-1.07,0.29-2.19,0.79-3.38c0.5-1.19,0.76-2.18,0.78-2.98c-0.89-1.76-1.58-3.44-2.06-5.06c-0.5-1.35-0.93-2.73-1.29-4.14
		c-0.36-1.41-0.54-2.45-0.52-3.11c0.02-0.67,0.24-1.33,0.65-1.98c0.42-0.66,0.64-1.32,0.65-1.98c0.02-0.67-0.1-1.27-0.35-1.81
		c-0.25-0.54-0.37-1.15-0.35-1.81c0.01-0.4,0.12-0.83,0.33-1.29c0.21-0.46,0.33-0.96,0.34-1.49c0.02-0.66-0.04-1.23-0.15-1.7
		c-0.12-0.47-0.17-1.04-0.15-1.7c0.01-0.4,0.16-1,0.45-1.79c0.03-1.06-0.21-2.14-0.71-3.22c-0.5-1.08-0.74-2.15-0.71-3.22
		c0.05-1.87,0.47-3.96,1.27-6.27c0.79-2.31,1.21-4.07,1.24-5.27c0.01-0.27-0.06-0.5-0.18-0.71c-0.13-0.2-0.19-0.44-0.18-0.7
		c0.01-0.53,0.19-0.96,0.54-1.29c0.34-0.32,0.52-0.75,0.54-1.29c0.02-0.8-0.33-1.58-1.04-2.33c-0.71-0.75-1.06-1.39-1.05-1.93
		c0.01-0.4,0.42-0.92,1.24-1.57c0.82-0.64,1.24-1.3,1.25-1.97c0.01-0.53-0.17-1.27-0.54-2.22c-0.38-0.94-0.55-1.88-0.52-2.81
		c0.04-1.6,0.28-2.86,0.7-3.78c0.42-0.92,0.91-1.64,1.46-2.16c0.55-0.52,1.03-0.94,1.44-1.26c0.41-0.32,0.62-0.75,0.63-1.28
		c0.02-0.67-0.24-1.21-0.75-1.62c-0.52-0.41-0.97-1.29-1.33-2.64c0.56-1.19,1.17-2.54,1.81-4.05c0.64-1.52,0.98-2.94,1.02-4.28
		c0.04-1.33-0.4-2.68-1.29-4.04c-0.9-1.36-1.32-3.04-1.26-5.04c0.02-0.93,0.49-2.22,1.41-3.86c0.91-1.64,1.39-3.46,1.45-5.46
		c0.04-1.46-0.09-2.97-0.38-4.51c-0.29-1.54-0.42-3.04-0.38-4.51c0.04-1.47,0.58-2.85,1.61-4.16c1.04-1.3,1.58-2.82,1.62-4.56
		c0.03-0.93-0.02-1.83-0.13-2.71c-0.11-0.87-0.15-1.71-0.13-2.5c0.03-1.07,0.13-2.26,0.3-3.59c0.17-1.33,0.47-2.59,0.9-3.78
		c0.43-1.19,0.99-2.21,1.68-3.05c0.69-0.85,1.57-1.26,2.63-1.23c0.93,0.02,2.16,0.26,3.68,0.7c1.52,0.44,2.94,1.11,4.25,2.02
		c1.31,0.9,2.45,2.07,3.41,3.49c0.96,1.43,1.42,3.14,1.36,5.14c-0.04,1.33-0.38,2.86-1.02,4.57c-0.65,1.72-1.39,3.46-2.24,5.24
		s-1.6,3.53-2.24,5.24c-0.65,1.72-0.99,3.24-1.02,4.58c-0.08,3.07-0.56,5.76-1.42,8.06c-0.86,2.31-1.46,4.8-1.8,7.45
		c-0.02,0.67,0.17,1.27,0.55,1.82c0.39,0.55,0.57,1.08,0.56,1.62c-0.01,0.53-0.26,0.99-0.74,1.38c-0.48,0.39-0.73,0.92-0.74,1.58
		c-0.01,0.27,0.24,0.81,0.76,1.62c-1.21,0.5-2.1,1.04-2.64,1.63c-0.55,0.59-1,1.27-1.36,2.06c-0.36,0.79-0.65,1.68-0.87,2.68
		c-0.23,1-0.69,2.15-1.4,3.46l0.39,0.41c0.67,0.02,1.21-0.23,1.62-0.76c0.41-0.52,0.76-1.15,1.05-1.87c0.29-0.72,0.5-1.42,0.66-2.08
		c0.15-0.66,0.23-1.19,0.24-1.59c0.03-1.06-0.21-2.07-0.72-3.02c0.54-0.25,1.04-0.4,1.51-0.46
		C491.36,263.26,491.8,263.1,492.21,262.85z M481.65,327.58c0.29-0.79,0.43-1.26,0.44-1.39l-0.39-0.41
		c-0.28,0.52-0.43,0.99-0.44,1.39L481.65,327.58z M483.26,275.61c-0.54,0.25-0.82,0.78-0.84,1.58c-0.01,0.4,0.05,0.67,0.18,0.8
		c0.13,0.14,0.19,0.34,0.18,0.61c0.14-0.26,0.28-0.46,0.42-0.59c0.14-0.13,0.28-0.32,0.42-0.59
		C483.62,277.02,483.5,276.42,483.26,275.61z M484.18,337.86l0.59,0.22l-0.38-0.81L484.18,337.86z M512.6,256
		c-0.04,1.47-0.27,2.56-0.69,3.28c-0.42,0.72-0.87,1.38-1.35,1.96c-0.48,0.59-1,1.17-1.55,1.76c-0.55,0.59-0.97,1.41-1.27,2.47
		c-0.58,1.72-1.42,3.23-2.52,4.53c-1.1,1.31-2.21,2.68-3.31,4.11c-0.42,0.52-1.01,1.61-1.79,3.25c-0.78,1.65-1.56,3.49-2.35,5.54
		c-0.79,2.05-1.48,4.13-2.07,6.25c-0.59,2.12-0.91,3.91-0.95,5.38c-0.03,0.93,0.04,2.1,0.21,3.51c0.16,1.4,0.77,2.12,1.84,2.15
		c0.27,0.01,1.64-0.19,4.12-0.59c2.48-0.4,5.26-1.09,8.36-2.07c3.09-0.98,6.13-2.4,9.12-4.25c2.98-1.85,5.12-4.29,6.4-7.33
		c1.1-1.3,2.14-2.61,3.11-3.92c0.83-1.04,1.72-2.08,2.69-3.13c0.96-1.04,1.78-1.88,2.47-2.53c0.54-0.39,1.28-1.87,2.22-4.44
		c0.94-2.58,1.88-5.52,2.84-8.83c0.96-3.31,1.78-6.65,2.47-10.04c0.69-3.38,1.07-6.07,1.12-8.07c0.04-1.6-0.33-2.61-1.12-3.03
		c-0.79-0.42-1.78-0.65-2.98-0.68c-2.27-0.06-4.49,0.61-6.66,2.02c-2.17,1.41-4.32,3.02-6.43,4.83c-2.12,1.81-4.16,3.52-6.14,5.14
		C516.4,254.87,514.47,255.78,512.6,256z"/>
</g>
</svg>
